<mxfile host="app.diagrams.net" modified="2023-12-13T12:23:19.315Z" agent="Mozilla/5.0 (Windows NT 10.0; Win64; x64) AppleWebKit/537.36 (KHTML, like Gecko) Chrome/85.0.4183.121 Safari/537.36" etag="qD_T9FiAxaq52CAwsGIo" version="22.1.8" type="github">
  <diagram name="Page-1" id="bShrFsk_v7wB2PO9vDBH">
    <mxGraphModel dx="1434" dy="788" grid="1" gridSize="10" guides="1" tooltips="1" connect="1" arrows="1" fold="1" page="1" pageScale="1" pageWidth="850" pageHeight="1100" math="0" shadow="0">
      <root>
        <mxCell id="0" />
        <mxCell id="1" parent="0" />
        <mxCell id="FR-igSrA6LLMVyEzO0AX-17" style="rounded=0;orthogonalLoop=1;jettySize=auto;html=1;exitX=0.5;exitY=1;exitDx=0;exitDy=0;entryX=0.5;entryY=0;entryDx=0;entryDy=0;endArrow=none;endFill=0;" edge="1" parent="1" source="FR-igSrA6LLMVyEzO0AX-1" target="FR-igSrA6LLMVyEzO0AX-9">
          <mxGeometry relative="1" as="geometry" />
        </mxCell>
        <mxCell id="FR-igSrA6LLMVyEzO0AX-1" value="Autor&lt;br&gt;" style="rounded=0;whiteSpace=wrap;html=1;" vertex="1" parent="1">
          <mxGeometry x="600" y="160" width="120" height="40" as="geometry" />
        </mxCell>
        <mxCell id="FR-igSrA6LLMVyEzO0AX-2" value="Id" style="ellipse;whiteSpace=wrap;html=1;" vertex="1" parent="1">
          <mxGeometry x="530" y="40" width="80" height="50" as="geometry" />
        </mxCell>
        <mxCell id="FR-igSrA6LLMVyEzO0AX-3" value="Nombre" style="ellipse;whiteSpace=wrap;html=1;" vertex="1" parent="1">
          <mxGeometry x="621" y="40" width="80" height="50" as="geometry" />
        </mxCell>
        <mxCell id="FR-igSrA6LLMVyEzO0AX-4" value="Biografia" style="ellipse;whiteSpace=wrap;html=1;" vertex="1" parent="1">
          <mxGeometry x="710" y="40" width="80" height="50" as="geometry" />
        </mxCell>
        <mxCell id="FR-igSrA6LLMVyEzO0AX-6" value="" style="endArrow=none;html=1;rounded=0;edgeStyle=orthogonalEdgeStyle;exitX=0.75;exitY=0;exitDx=0;exitDy=0;" edge="1" parent="1" source="FR-igSrA6LLMVyEzO0AX-1">
          <mxGeometry width="50" height="50" relative="1" as="geometry">
            <mxPoint x="700" y="140" as="sourcePoint" />
            <mxPoint x="750" y="90" as="targetPoint" />
          </mxGeometry>
        </mxCell>
        <mxCell id="FR-igSrA6LLMVyEzO0AX-7" value="" style="endArrow=none;html=1;rounded=0;edgeStyle=orthogonalEdgeStyle;" edge="1" parent="1">
          <mxGeometry width="50" height="50" relative="1" as="geometry">
            <mxPoint x="660" y="160" as="sourcePoint" />
            <mxPoint x="660" y="89.5" as="targetPoint" />
          </mxGeometry>
        </mxCell>
        <mxCell id="FR-igSrA6LLMVyEzO0AX-8" value="" style="endArrow=none;html=1;rounded=0;edgeStyle=orthogonalEdgeStyle;entryX=0.5;entryY=1;entryDx=0;entryDy=0;exitX=0.25;exitY=0;exitDx=0;exitDy=0;" edge="1" parent="1" source="FR-igSrA6LLMVyEzO0AX-1" target="FR-igSrA6LLMVyEzO0AX-2">
          <mxGeometry width="50" height="50" relative="1" as="geometry">
            <mxPoint x="670" y="170" as="sourcePoint" />
            <mxPoint x="670" y="99.5" as="targetPoint" />
            <Array as="points">
              <mxPoint x="630" y="135" />
              <mxPoint x="570" y="135" />
            </Array>
          </mxGeometry>
        </mxCell>
        <mxCell id="FR-igSrA6LLMVyEzO0AX-9" value="Ha creado" style="rhombus;whiteSpace=wrap;html=1;" vertex="1" parent="1">
          <mxGeometry x="621" y="270" width="80" height="80" as="geometry" />
        </mxCell>
        <mxCell id="FR-igSrA6LLMVyEzO0AX-10" value="Video" style="rounded=0;whiteSpace=wrap;html=1;" vertex="1" parent="1">
          <mxGeometry x="600" y="430" width="120" height="60" as="geometry" />
        </mxCell>
        <mxCell id="FR-igSrA6LLMVyEzO0AX-11" value="Id" style="ellipse;whiteSpace=wrap;html=1;" vertex="1" parent="1">
          <mxGeometry x="760" y="410" width="80" height="50" as="geometry" />
        </mxCell>
        <mxCell id="FR-igSrA6LLMVyEzO0AX-12" value="Nombre" style="ellipse;whiteSpace=wrap;html=1;" vertex="1" parent="1">
          <mxGeometry x="770" y="470" width="80" height="50" as="geometry" />
        </mxCell>
        <mxCell id="FR-igSrA6LLMVyEzO0AX-13" value="" style="endArrow=none;html=1;rounded=0;entryX=1;entryY=0.5;entryDx=0;entryDy=0;" edge="1" parent="1" source="FR-igSrA6LLMVyEzO0AX-11" target="FR-igSrA6LLMVyEzO0AX-10">
          <mxGeometry width="50" height="50" relative="1" as="geometry">
            <mxPoint x="670" y="170" as="sourcePoint" />
            <mxPoint x="670" y="99.5" as="targetPoint" />
          </mxGeometry>
        </mxCell>
        <mxCell id="FR-igSrA6LLMVyEzO0AX-14" value="" style="endArrow=none;html=1;rounded=0;exitX=0;exitY=0;exitDx=0;exitDy=0;entryX=1;entryY=0.75;entryDx=0;entryDy=0;" edge="1" parent="1" source="FR-igSrA6LLMVyEzO0AX-12" target="FR-igSrA6LLMVyEzO0AX-10">
          <mxGeometry width="50" height="50" relative="1" as="geometry">
            <mxPoint x="780" y="385" as="sourcePoint" />
            <mxPoint x="740" y="420" as="targetPoint" />
          </mxGeometry>
        </mxCell>
        <mxCell id="FR-igSrA6LLMVyEzO0AX-15" value="" style="fontSize=12;html=1;endArrow=ERzeroToMany;endFill=1;rounded=0;exitX=0.5;exitY=1;exitDx=0;exitDy=0;entryX=0.5;entryY=0;entryDx=0;entryDy=0;" edge="1" parent="1" source="FR-igSrA6LLMVyEzO0AX-9" target="FR-igSrA6LLMVyEzO0AX-10">
          <mxGeometry width="100" height="100" relative="1" as="geometry">
            <mxPoint x="650" y="320" as="sourcePoint" />
            <mxPoint x="649" y="450" as="targetPoint" />
          </mxGeometry>
        </mxCell>
      </root>
    </mxGraphModel>
  </diagram>
</mxfile>
